<?xml version="1.0" encoding="UTF-8"?><svg id="Layer_1" xmlns="http://www.w3.org/2000/svg" xmlns:xlink="http://www.w3.org/1999/xlink" viewBox="0 0 196.94 297.25"><defs><style>.cls-1{fill:url(#linear-gradient);}.cls-1,.cls-2,.cls-3{stroke-width:0px;}.cls-2{fill:#000;}.cls-3{fill:url(#linear-gradient-2);}</style><linearGradient id="linear-gradient" x1="25.55" y1="22.33" x2="171.38" y2="274.92" gradientTransform="translate(-19.73 15.15) rotate(-8)" gradientUnits="userSpaceOnUse"><stop offset="0" stop-color="#49c7ff"/><stop offset="1" stop-color="#bd36ff"/></linearGradient><linearGradient id="linear-gradient-2" x1="31.7" y1="148.62" x2="165.24" y2="148.62" gradientUnits="userSpaceOnUse"><stop offset="0" stop-color="#ffea83"/><stop offset=".08" stop-color="#ffdd35"/><stop offset="1" stop-color="#ffa800"/></linearGradient></defs><path class="cls-1" d="M112.58.21L43.99,9.85c-9.26,1.3-16.67,8.32-18.48,17.5L.41,155.15c-.95,4.83-.25,9.84,2,14.23l59.36,115.93c4.26,8.32,13.33,13.03,22.58,11.73l68.59-9.64c9.26-1.3,16.67-8.32,18.48-17.5l25.1-127.8c.95-4.83.25-9.84-2-14.23L135.17,11.94C130.91,3.62,121.84-1.09,112.58.21Z"/><path class="cls-2" d="M83.61,282.45c-4.88.69-9.66-1.8-11.91-6.18L14.2,163.96c-1.18-2.3-1.55-4.96-1.05-7.5l24.32-123.81c.95-4.83,4.86-8.54,9.74-9.22l66.45-9.34c4.88-.69,9.66,1.8,11.91,6.18l57.5,112.31c1.18,2.3,1.55,4.97,1.05,7.5l-24.32,123.81c-.95,4.83-4.86,8.54-9.74,9.22l-66.45,9.34Z"/><path class="cls-3" d="M97.71,107.8l17.99,23.02c2.7,3.45.65,8.53-3.69,9.14l-28.93,4.07c-4.34.61-7.71-3.71-6.07-7.77l10.94-27.09c1.64-4.06,7.06-4.82,9.76-1.37ZM143.13,131.79l10.94-27.09c1.64-4.06-1.73-8.38-6.07-7.77l-28.93,4.07c-4.34.61-6.39,5.69-3.69,9.14l17.99,23.02c2.7,3.45,8.12,2.69,9.76-1.37ZM60.66,143.38l10.94-27.09c1.64-4.06-1.73-8.38-6.07-7.77l-28.93,4.07c-4.34.61-6.39,5.69-3.69,9.14l17.99,23.02c2.7,3.45,8.12,2.69,9.76-1.37ZM109.83,187.96l10.94-27.09c1.64-4.06-1.73-8.38-6.07-7.77l-28.93,4.07c-4.34.61-6.39,5.69-3.69,9.14l17.99,23.02c2.7,3.45,8.12,2.69,9.76-1.37ZM53.81,165.46l-10.94,27.09c-1.64,4.06,1.73,8.38,6.07,7.77l28.93-4.07c4.34-.61,6.39-5.69,3.69-9.14l-17.99-23.02c-2.7-3.45-8.12-2.69-9.76,1.37ZM136.28,153.87l-10.94,27.09c-1.64,4.06,1.73,8.38,6.07,7.77l28.93-4.07c4.34-.61,6.39-5.69,3.69-9.14l-17.99-23.02c-2.7-3.45-8.12-2.69-9.76,1.37Z"/></svg>